<?xml version="1.0" encoding="UTF-8"?>
<svg xmlns="http://www.w3.org/2000/svg" width="550" height="492" viewBox="0 0 550 492" role="img" aria-labelledby="title">
  <title id="title">Serenity Club of Clearwater sign recreation</title>
  <g>
    <ellipse cx="275" cy="55" rx="78" ry="37" fill="#735157" stroke="#667174" stroke-width="5.8"/>
    <path d="M255.35 35.91L257.41 36.90L257.41 37.24Q254.33 37.89 250.38 40.33Q246.42 42.76 243.73 46.87Q241.04 50.98 240.62 56.78Q241.58 56.10 242.83 55.14Q244.44 53.92 245.19 53.47Q245.94 53.02 247.20 52.68Q248.46 52.34 250.11 52.34Q253.02 52.34 255.35 53.63Q257.67 54.91 258.83 57.42Q259.99 59.93 259.99 63.27Q259.99 68 257.70 71.18Q255.40 74.37 252.83 75.74Q250.25 77.12 246.91 77.12Q241.21 77.12 238.07 72.85Q234.93 68.59 234.93 61.77Q234.93 57.24 236.24 53.06Q237.56 48.88 240.25 45.50Q242.94 42.11 247.12 39.48Q251.30 36.85 255.35 35.91M240.08 63.92Q240.08 66.72 240.89 69.47Q241.70 72.22 243.48 73.72Q245.26 75.22 247.67 75.22Q249.74 75.22 251.49 74.06Q253.25 72.90 254.17 70.42Q255.09 67.94 255.09 65.19Q255.09 62.45 254.18 60.28Q253.28 58.11 251.55 56.91Q249.82 55.71 247.53 55.71Q245.83 55.71 244.13 56.53Q242.43 57.35 241.51 58.40Q240.59 59.45 240.34 60.62Q240.08 61.80 240.08 63.92M264.89 75.42Q264.38 72.08 262.99 67.38L263.13 66.95L264.18 66.55L264.58 66.75Q265.57 69.36 266.70 71.06Q267.83 72.76 269.96 73.66Q272.08 74.57 274.55 74.57Q277.66 74.57 279.49 73.27Q281.32 71.96 282.31 69.73Q283.30 67.49 283.30 64.68Q283.30 60.92 281.33 58.77Q279.36 56.61 275.88 56.61Q274.69 56.61 273.75 56.84Q272.82 57.07 270.87 57.86L270.55 57.58L271.18 54.49Q273.47 54.63 274.24 54.63Q277.55 54.63 279.49 52.28Q281.43 49.93 281.43 46.73Q281.43 43.93 279.40 42.03Q277.38 40.13 274.41 40.13Q272.45 40.13 270.71 40.92Q268.97 41.72 267.83 42.85Q267.35 43.81 266.31 46.64L266.02 46.90L264.75 46.90L264.52 46.64L266.22 40.07Q269.76 36.08 275.82 36.08Q280.44 36.08 283.28 38.53Q286.13 40.98 286.13 44.69Q286.13 47.52 284.46 49.89Q282.79 52.25 279.81 54.35Q284.71 54.94 286.71 57.28Q288.71 59.62 288.71 62.93Q288.71 68.37 283.78 72.71Q278.85 77.06 272.39 77.06Q270.47 77.06 268.80 76.73Q267.13 76.41 264.89 75.42M295.28 44.07L294.77 43.90L294.48 41.58L294.77 41.29Q297.60 40.47 301.93 38.66Q306.27 36.85 308.13 35.88L308.87 36.17Q308.42 48.57 308.42 51.06L308.42 61.57Q308.42 65.45 308.50 68.86Q308.59 72.27 308.76 72.88Q308.93 73.49 309.34 73.83Q309.75 74.17 310.49 74.27Q311.22 74.37 314.88 74.57L315.07 74.79L315.07 76.07L314.88 76.30Q308.67 76.07 306.12 76.07Q304.20 76.07 296.69 76.30L296.50 76.07L296.50 74.79L296.72 74.57Q300.97 74.26 301.58 74.12Q302.19 73.97 302.51 73.62Q302.84 73.27 303.04 72.27Q303.24 71.28 303.36 66.41Q303.49 61.54 303.49 61.43L303.49 50.27Q303.49 42.06 303.45 41.35Q303.41 40.64 302.95 40.64Q302.84 40.64 302.64 40.70Q302.44 40.75 301.39 41.21L298.59 42.45Q296.83 43.22 295.28 44.07" fill="#f8f4f1"/>
    <g transform="translate(0 -12)">
    <path d="M169.82 135.25L170 135.42Q169.82 137.18 169.82 141.55L169.67 141.71L168.75 141.71L168.59 141.54L168.38 139.74Q168.22 138.29 168.13 137.97Q168.04 137.65 167.85 137.50Q167.65 137.36 166.58 137.26Q165.51 137.16 164.18 137.16L160.49 137.16Q160.33 141.57 160.33 142.26L160.33 153.64L160.37 157.45Q160.39 159.66 160.48 160.31Q160.56 160.97 160.75 161.17Q160.93 161.38 161.46 161.53Q161.99 161.67 164.08 161.75L164.22 161.87L164.22 162.84L164.08 163Q159.08 162.84 158.49 162.84Q157.87 162.84 152.93 163L152.77 162.84L152.77 161.87L152.93 161.75Q154.76 161.67 155.36 161.55Q155.95 161.44 156.16 161.25Q156.36 161.07 156.50 160.46Q156.64 159.86 156.64 157.77L156.68 153.64L156.68 142.26Q156.68 141.95 156.52 137.16L153.61 137.16Q151.81 137.16 150.51 137.24Q149.20 137.32 148.99 137.64Q148.79 137.96 148.61 139.74L148.42 141.54L148.24 141.71L147.34 141.71L147.18 141.55Q147.15 136.85 147.01 135.42L147.18 135.25Q150.58 135.40 158.49 135.40Q166.56 135.40 169.82 135.25" fill="#273335"/>
    <path d="M169 142.95L169 142.24L169.11 142.14Q172.62 142.26 173.16 142.26Q173.64 142.26 177.22 142.14L177.34 142.24L177.34 142.95L177.22 143.05Q176.25 143.08 175.72 143.13Q175.19 143.19 174.94 143.35Q174.70 143.50 174.63 144.07Q174.55 144.65 174.55 145.67L174.52 148.92L174.52 153.43Q174.52 155.65 174.61 156.69Q174.70 157.73 175.01 158.45Q175.31 159.16 175.94 159.68Q176.56 160.20 177.72 160.52Q178.88 160.85 180.35 160.85Q181.91 160.85 183.26 160.42Q184.62 159.98 185.32 159.16Q186.03 158.34 186.25 157Q186.47 155.67 186.47 153.29L186.47 148.92Q186.47 147.82 186.44 145.89Q186.40 143.95 186.27 143.66Q186.13 143.37 185.77 143.23Q185.41 143.08 183.77 143.05L183.65 142.94L183.65 142.27L183.77 142.14Q185.86 142.26 187.12 142.26Q188.20 142.26 190.46 142.14L190.59 142.26L190.59 142.94L190.46 143.05Q189.13 143.08 188.73 143.15Q188.33 143.23 188.16 143.39Q188 143.54 187.92 143.87Q187.84 144.20 187.82 145.74L187.77 148.92L187.77 153.23Q187.77 155.81 187.58 157.29Q187.38 158.78 186.69 159.74Q186 160.69 185.06 161.34Q184.12 161.98 182.65 162.33Q181.18 162.67 179.59 162.67Q177.61 162.67 176.08 162.24Q174.56 161.80 173.68 161.07Q172.81 160.35 172.42 159.55Q172.04 158.75 171.93 157.67Q171.82 156.59 171.82 154.36L171.82 148.92L171.79 146.16Q171.77 144.55 171.71 144.08Q171.65 143.61 171.51 143.46Q171.38 143.30 170.99 143.20Q170.61 143.10 169.11 143.05L169 142.95M180.06 141.09M179.97 163M193.27 142.95L193.27 142.24L193.39 142.14Q195.98 142.26 197.42 142.26Q199.02 142.26 201.74 142.16Q202.75 142.13 203.20 142.13Q206.78 142.13 208.06 143.43Q209.33 144.73 209.33 146.52Q209.33 147.71 208.71 148.85Q208.09 150 206.87 150.82Q205.65 151.63 203.51 152.04Q203.91 152.59 204.94 153.95L206.95 156.61Q207.93 157.93 209.05 159.40Q210.17 160.86 210.49 161.05Q210.82 161.24 211.05 161.29Q211.29 161.33 211.80 161.33L211.91 161.44L211.91 162.11L211.78 162.24Q211.10 162.15 210.17 162.15Q209.16 162.15 207.97 162.24Q207 161.05 204.90 158.11Q202.46 154.72 199.92 151.81L200.06 151.37Q200.79 151.42 201.20 151.42Q203.65 151.42 205.04 150.24Q206.43 149.07 206.43 146.98Q206.43 145.12 205.18 144.16Q203.94 143.20 201.81 143.20Q200.33 143.20 199.01 143.61Q198.80 143.93 198.80 148.92L198.80 155.48L198.81 158.24Q198.83 159.84 198.90 160.31Q198.97 160.78 199.10 160.93Q199.24 161.09 199.62 161.19Q200 161.30 201.50 161.36L201.61 161.44L201.61 162.15L201.50 162.26Q201.43 162.26 199.01 162.18Q198 162.15 197.44 162.15Q197 162.15 193.39 162.26L193.27 162.15L193.27 161.44L193.39 161.36Q194.70 161.30 195.14 161.22Q195.58 161.13 195.73 161Q195.88 160.86 195.97 160.42Q196.06 159.98 196.08 158.47L196.09 155.48L196.09 148.92L196.06 146.16Q196.05 144.55 195.99 144.08Q195.92 143.61 195.79 143.46Q195.65 143.30 195.27 143.20Q194.89 143.10 193.39 143.05L193.27 142.95M214.54 162.25L214.41 162.12L214.41 161.47L214.54 161.36Q215.40 161.34 215.92 161.26Q216.43 161.17 216.58 160.98Q216.73 160.78 216.78 160.34Q216.83 159.90 216.88 158.36Q216.93 156.81 216.93 156.15L216.93 144.71Q216.93 143.98 216.67 143.64Q216.40 143.29 215.95 143.20Q215.50 143.10 214.41 143.09L214.29 142.98L214.29 142.31L214.41 142.18Q216.36 142.26 216.97 142.26Q218.40 142.26 219.32 142.18L223.84 148.05L230.48 156.37Q231.68 157.89 232.93 159.25L232.93 148.29Q232.93 147.78 232.88 146.11Q232.83 144.45 232.76 144Q232.69 143.56 232.51 143.40Q232.33 143.25 231.85 143.17Q231.36 143.09 230.52 143.08L230.41 142.96L230.41 142.31L230.52 142.18Q231.67 142.26 233.79 142.26Q235.73 142.26 236.61 142.18L236.74 142.31L236.74 142.96L236.63 143.08Q235.69 143.09 235.18 143.18Q234.67 143.27 234.54 143.49Q234.42 143.70 234.37 144.11Q234.32 144.52 234.27 146.06Q234.22 147.61 234.22 148.29L234.22 155.01L234.23 158.91Q234.26 160.82 234.29 162.75Q233.58 162.50 231.84 162.15L230.83 160.96L227.82 157.28L218.22 145.29L218.22 156.15Q218.22 156.80 218.27 158.47Q218.32 160.14 218.39 160.49Q218.46 160.85 218.57 160.98Q218.68 161.12 219.06 161.23Q219.43 161.34 220.61 161.36L220.72 161.47L220.72 162.14L220.61 162.25Q219.87 162.15 218.23 162.15Q216.12 162.15 214.54 162.25M240.28 142.95L240.28 142.24L240.40 142.14Q245.26 142.23 246.61 142.23Q251.26 142.23 254.88 142.14L254.95 142.24Q254.60 143.60 254.43 146.50L254.35 146.62L253.65 146.62L253.52 146.50Q253.54 146.38 253.54 146.28Q253.54 145.07 253.35 143.98Q252.46 143.59 250.88 143.47Q249.30 143.35 248.51 143.35Q247.39 143.35 245.65 143.50L245.60 145.77L245.55 148.36L245.51 151.23Q247.04 151.32 248.33 151.32Q249.63 151.32 250.51 151.23Q251.39 151.15 251.54 151.06Q251.68 150.96 251.76 150.70Q251.84 150.44 251.90 149.77L251.95 148.90L252.07 148.78L252.72 148.78L252.83 148.90Q252.80 150.44 252.76 152L252.83 155.18L252.72 155.30L252.07 155.30L251.95 155.18L251.85 154.33Q251.73 153.34 251.67 153.15Q251.61 152.96 251.41 152.82Q251.20 152.68 250.35 152.59Q249.50 152.51 248.02 152.51Q247.20 152.51 245.51 152.58Q245.44 153.77 245.44 156.54Q245.44 159.52 245.51 160.92L248.12 160.92Q251.56 160.92 252.42 160.83Q253.28 160.75 254.06 160.42Q254.19 160.10 254.48 158.91Q254.77 157.73 254.81 157.44L254.95 157.34L255.63 157.34L255.75 157.44Q255.62 158.04 255.50 159.56Q255.38 161.07 255.38 162.15L255.28 162.26Q252.58 162.18 248.20 162.18L244.35 162.15Q243 162.15 241.55 162.26L241.43 162.15L241.43 161.68L241.55 161.54Q242.38 161.12 242.50 161.01Q242.62 160.90 242.70 158.53Q242.78 156.16 242.78 154.91L242.78 149.72L242.76 146.50Q242.76 145.46 242.73 144.80Q242.71 144.14 242.64 143.86Q242.56 143.57 242.47 143.46Q242.38 143.35 242.18 143.27Q241.97 143.19 241.47 143.13L240.40 143.05L240.28 142.95M248.37 141.09M248.31 163M259.11 142.95L259.11 142.24L259.22 142.14Q261.81 142.26 263.26 142.26Q264.86 142.26 267.58 142.16Q268.58 142.13 269.04 142.13Q272.62 142.13 273.89 143.43Q275.17 144.73 275.17 146.52Q275.17 147.71 274.54 148.85Q273.92 150 272.70 150.82Q271.49 151.63 269.35 152.04Q269.74 152.59 270.78 153.95L272.79 156.61Q273.77 157.93 274.88 159.40Q276 160.86 276.33 161.05Q276.65 161.24 276.89 161.29Q277.12 161.33 277.63 161.33L277.75 161.44L277.75 162.11L277.62 162.24Q276.94 162.15 276 162.15Q275 162.15 273.81 162.24Q272.83 161.05 270.74 158.11Q268.30 154.72 265.75 151.81L265.89 151.37Q266.63 151.42 267.04 151.42Q269.49 151.42 270.88 150.24Q272.27 149.07 272.27 146.98Q272.27 145.12 271.02 144.16Q269.77 143.20 267.65 143.20Q266.16 143.20 264.85 143.61Q264.63 143.93 264.63 148.92L264.63 155.48L264.65 158.24Q264.66 159.84 264.73 160.31Q264.80 160.78 264.94 160.93Q265.07 161.09 265.45 161.19Q265.84 161.30 267.34 161.36L267.45 161.44L267.45 162.15L267.34 162.26Q267.27 162.26 264.85 162.18Q263.84 162.15 263.27 162.15Q262.83 162.15 259.22 162.26L259.11 162.15L259.11 161.44L259.22 161.36Q260.54 161.30 260.98 161.22Q261.42 161.13 261.57 161Q261.72 160.86 261.81 160.42Q261.90 159.98 261.91 158.47L261.93 155.48L261.93 148.92L261.90 146.16Q261.89 144.55 261.82 144.08Q261.76 143.61 261.62 143.46Q261.49 143.30 261.11 143.20Q260.72 143.10 259.22 143.05" fill="#273335"/>
    <path d="M290.04 155.56L290.19 155.40L291.15 155.40L291.31 155.56Q291.41 158.06 291.57 158.62Q291.74 159.17 292.63 159.79Q293.51 160.40 294.99 160.79Q296.46 161.18 297.97 161.18Q300.04 161.18 301.69 160.42Q303.34 159.66 304.26 158.19Q305.17 156.71 305.17 154.88Q305.17 153.59 304.74 152.63Q304.30 151.67 303.50 151.10Q302.71 150.52 301.70 150.24Q300.68 149.95 298.67 149.62Q296.72 149.31 295.61 149.05Q294.51 148.80 293.42 148.27Q292.32 147.75 291.59 146.94Q290.86 146.13 290.42 144.94Q289.98 143.76 289.98 142.41Q289.98 138.76 292.52 136.43Q295.06 134.09 299.33 134.09Q301.03 134.09 303.04 134.51Q305.04 134.93 306.68 135.75L306.82 135.99Q306.39 137.79 306.29 141.11L306.11 141.26L305.10 141.26L304.94 141.13Q304.90 138.78 304.82 138.18Q304.75 137.57 303.05 136.67Q301.35 135.77 299.35 135.77Q297.69 135.77 296.25 136.44Q294.80 137.10 294.06 138.53Q293.32 139.95 293.32 141.44Q293.32 142.59 293.77 143.48Q294.22 144.37 294.93 144.88Q295.64 145.40 296.59 145.66Q297.54 145.91 300.06 146.28Q303.51 146.77 305.09 147.46Q306.66 148.16 307.61 149.66Q308.55 151.16 308.55 153.29Q308.55 157.45 305.17 160.23Q301.78 163 296.95 163Q292.91 163 289.86 161.55L289.75 161.30Q289.94 160.07 290.04 155.56" fill="#273335"/>
    <path d="M324.09 142.14L324.22 142.27Q324.09 143.54 324.09 146.72L323.98 146.83L323.31 146.83L323.20 146.70L323.04 145.40Q322.93 144.35 322.87 144.12Q322.80 143.88 322.66 143.78Q322.52 143.67 321.74 143.60Q320.96 143.53 320 143.53L317.32 143.53Q317.21 146.73 317.21 147.23L317.21 155.48L317.24 158.24Q317.25 159.84 317.32 160.32Q317.38 160.79 317.52 160.94Q317.65 161.09 318.03 161.19Q318.41 161.30 319.93 161.36L320.03 161.44L320.03 162.15L319.93 162.26Q316.30 162.15 315.88 162.15Q315.43 162.15 311.84 162.26L311.73 162.15L311.73 161.44L311.84 161.36Q313.18 161.30 313.61 161.22Q314.04 161.13 314.19 161Q314.34 160.86 314.44 160.42Q314.53 159.98 314.53 158.47L314.56 155.48L314.56 147.23Q314.56 147 314.45 143.53L312.34 143.53Q311.04 143.53 310.09 143.59Q309.14 143.64 308.99 143.88Q308.84 144.11 308.71 145.40L308.57 146.70L308.45 146.83L307.79 146.83L307.68 146.72Q307.65 143.30 307.55 142.27L307.68 142.14Q310.15 142.26 315.88 142.26Q321.73 142.26 324.09 142.14M326.92 142.95L326.92 142.24L327.03 142.14Q329.62 142.26 331.07 142.26Q332.67 142.26 335.38 142.16Q336.39 142.13 336.84 142.13Q340.43 142.13 341.70 143.43Q342.97 144.73 342.97 146.52Q342.97 147.71 342.35 148.85Q341.73 150 340.51 150.82Q339.29 151.63 337.15 152.04Q337.55 152.59 338.59 153.95L340.60 156.61Q341.57 157.93 342.69 159.40Q343.81 160.86 344.14 161.05Q344.46 161.24 344.70 161.29Q344.93 161.33 345.44 161.33L345.55 161.44L345.55 162.11L345.42 162.24Q344.74 162.15 343.81 162.15Q342.80 162.15 341.62 162.24Q340.64 161.05 338.54 158.11Q336.11 154.72 333.56 151.81L333.70 151.37Q334.44 151.42 334.85 151.42Q337.30 151.42 338.68 150.24Q340.07 149.07 340.07 146.98Q340.07 145.12 338.83 144.16Q337.58 143.20 335.46 143.20Q333.97 143.20 332.65 143.61Q332.44 143.93 332.44 148.92L332.44 155.48L332.45 158.24Q332.47 159.84 332.54 160.31Q332.61 160.78 332.74 160.93Q332.88 161.09 333.26 161.19Q333.64 161.30 335.14 161.36L335.26 161.44L335.26 162.15L335.14 162.26Q335.07 162.26 332.65 162.18Q331.65 162.15 331.08 162.15Q330.64 162.15 327.03 162.26L326.92 162.15L326.92 161.44L327.03 161.36Q328.35 161.30 328.79 161.22Q329.23 161.13 329.37 161Q329.52 160.86 329.61 160.42Q329.71 159.98 329.72 158.47L329.74 155.48L329.74 148.92L329.71 146.16Q329.69 144.55 329.63 144.08Q329.57 143.61 329.43 143.46Q329.30 143.30 328.91 143.20Q328.53 143.10 327.03 143.05L326.92 142.95M348.28 142.95L348.28 142.24L348.39 142.14Q353.25 142.23 354.61 142.23Q359.25 142.23 362.88 142.14L362.95 142.24Q362.59 143.60 362.42 146.50L362.34 146.62L361.64 146.62L361.52 146.50Q361.53 146.38 361.53 146.28Q361.53 145.07 361.35 143.98Q360.45 143.59 358.88 143.47Q357.30 143.35 356.50 143.35Q355.39 143.35 353.64 143.50L353.59 145.77L353.54 148.36L353.50 151.23Q355.03 151.32 356.32 151.32Q357.62 151.32 358.50 151.23Q359.38 151.15 359.53 151.06Q359.68 150.96 359.75 150.70Q359.83 150.44 359.89 149.77L359.95 148.90L360.06 148.78L360.71 148.78L360.82 148.90Q360.79 150.44 360.75 152L360.82 155.18L360.71 155.30L360.06 155.30L359.95 155.18L359.85 154.33Q359.72 153.34 359.66 153.15Q359.61 152.96 359.40 152.82Q359.19 152.68 358.35 152.59Q357.50 152.51 356.01 152.51Q355.19 152.51 353.50 152.58Q353.43 153.77 353.43 156.54Q353.43 159.52 353.50 160.92L356.11 160.92Q359.55 160.92 360.41 160.83Q361.28 160.75 362.06 160.42Q362.18 160.10 362.47 158.91Q362.76 157.73 362.81 157.44L362.95 157.34L363.63 157.34L363.74 157.44Q363.61 158.04 363.49 159.56Q363.37 161.07 363.37 162.15L363.27 162.26Q360.57 162.18 356.19 162.18L352.34 162.15Q351 162.15 349.54 162.26L349.42 162.15L349.42 161.68L349.54 161.54Q350.37 161.12 350.49 161.01Q350.61 160.90 350.69 158.53Q350.77 156.16 350.77 154.91L350.77 149.72L350.76 146.50Q350.76 145.46 350.73 144.80Q350.70 144.14 350.63 143.86Q350.56 143.57 350.46 143.46Q350.37 143.35 350.17 143.27Q349.96 143.19 349.47 143.13L348.39 143.05L348.28 142.95M356.36 141.09M356.31 163M367.54 142.95L367.54 142.24L367.65 142.14Q372.51 142.23 373.87 142.23Q378.52 142.23 382.14 142.14L382.21 142.24Q381.86 143.60 381.69 146.50L381.60 146.62L380.91 146.62L380.78 146.50Q380.80 146.38 380.80 146.28Q380.80 145.07 380.61 143.98Q379.72 143.59 378.14 143.47Q376.56 143.35 375.77 143.35Q374.65 143.35 372.91 143.50L372.85 145.77L372.81 148.36L372.77 151.23Q374.30 151.32 375.58 151.32Q376.89 151.32 377.77 151.23Q378.64 151.15 378.79 151.06Q378.94 150.96 379.02 150.70Q379.10 150.44 379.15 149.77L379.21 148.90L379.32 148.78L379.97 148.78L380.09 148.90Q380.06 150.44 380.02 152L380.09 155.18L379.97 155.30L379.32 155.30L379.21 155.18L379.11 154.33Q378.98 153.34 378.93 153.15Q378.87 152.96 378.66 152.82Q378.46 152.68 377.61 152.59Q376.76 152.51 375.27 152.51Q374.45 152.51 372.77 152.58Q372.70 153.77 372.70 156.54Q372.70 159.52 372.77 160.92L375.37 160.92Q378.81 160.92 379.68 160.83Q380.54 160.75 381.32 160.42Q381.45 160.10 381.74 158.91Q382.03 157.73 382.07 157.44L382.21 157.34L382.89 157.34L383 157.44Q382.88 158.04 382.76 159.56Q382.64 161.07 382.64 162.15L382.54 162.26Q379.83 162.18 375.46 162.18L371.61 162.15Q370.26 162.15 368.80 162.26L368.69 162.15L368.69 161.68L368.80 161.54Q369.64 161.12 369.76 161.01Q369.88 160.90 369.96 158.53Q370.03 156.16 370.03 154.91L370.03 149.72L370.02 146.50Q370.02 145.46 369.99 144.80Q369.96 144.14 369.89 143.86Q369.82 143.57 369.73 143.46Q369.64 143.35 369.43 143.27Q369.23 143.19 368.73 143.13L367.65 143.05L367.54 142.95M375.63 141.09M375.57 163M402.86 142.14L402.99 142.27Q402.86 143.54 402.86 146.72L402.75 146.83L402.08 146.83L401.97 146.70L401.82 145.40Q401.70 144.35 401.64 144.12Q401.58 143.88 401.43 143.78Q401.29 143.67 400.51 143.60Q399.73 143.53 398.77 143.53L396.10 143.53Q395.98 146.73 395.98 147.23L395.98 155.48L396.01 158.24Q396.02 159.84 396.09 160.32Q396.15 160.79 396.29 160.94Q396.42 161.09 396.80 161.19Q397.19 161.30 398.70 161.36L398.80 161.44L398.80 162.15L398.70 162.26Q395.08 162.15 394.65 162.15Q394.20 162.15 390.62 162.26L390.50 162.15L390.50 161.44L390.62 161.36Q391.95 161.30 392.38 161.22Q392.81 161.13 392.96 161Q393.11 160.86 393.21 160.42Q393.31 159.98 393.31 158.47L393.33 155.48L393.33 147.23Q393.33 147 393.22 143.53L391.11 143.53Q389.81 143.53 388.86 143.59Q387.91 143.64 387.76 143.88Q387.61 144.11 387.49 145.40L387.34 146.70L387.22 146.83L386.57 146.83L386.45 146.72Q386.42 143.30 386.32 142.27L386.45 142.14Q388.92 142.26 394.65 142.26Q400.50 142.26 402.86 142.14" fill="#273335"/>
    <line x1="173.997265625" y1="136" x2="285.7451171875" y2="136" stroke="#667174" stroke-width="2" stroke-linecap="square"/>
    <line x1="312.5537109375" y1="136" x2="404.99101562500005" y2="136" stroke="#667174" stroke-width="2" stroke-linecap="square"/>
    <line x1="150.008984375" y1="165" x2="404.99101562500005" y2="165" stroke="#667174" stroke-width="2" stroke-linecap="square"/>
    <path d="M36.55 274.15L37.20 273.50L41.22 273.50L41.88 274.15Q42.29 284.65 42.99 286.99Q43.68 289.33 47.42 291.91Q51.15 294.50 57.34 296.14Q63.53 297.78 69.85 297.78Q78.55 297.78 85.48 294.58Q92.41 291.38 96.27 285.19Q100.12 278.99 100.12 271.28Q100.12 265.87 98.28 261.85Q96.43 257.83 93.11 255.41Q89.78 252.99 85.52 251.80Q81.25 250.61 72.80 249.21Q64.60 247.90 59.97 246.84Q55.33 245.77 50.74 243.55Q46.14 241.34 43.07 237.94Q39.99 234.53 38.15 229.57Q36.30 224.61 36.30 218.95Q36.30 203.61 46.96 193.80Q57.63 184 75.59 184Q82.73 184 91.14 185.76Q99.55 187.53 106.44 190.97L107.01 191.96Q105.21 199.50 104.80 213.45L104.06 214.11L99.79 214.11L99.14 213.53Q98.97 203.69 98.64 201.14Q98.32 198.60 91.18 194.83Q84.04 191.05 75.68 191.05Q68.70 191.05 62.63 193.84Q56.56 196.63 53.45 202.62Q50.33 208.61 50.33 214.84Q50.33 219.68 52.21 223.42Q54.10 227.15 57.10 229.32Q60.09 231.50 64.07 232.56Q68.05 233.63 78.63 235.19Q93.15 237.24 99.75 240.15Q106.36 243.06 110.33 249.38Q114.31 255.70 114.31 264.64Q114.31 282.11 100.08 293.76Q85.85 305.41 65.59 305.41Q48.61 305.41 35.81 299.34L35.32 298.27Q36.14 293.10 36.55 274.15" fill="#412326"/>
    <path d="M112.31 219.82L112.31 217.60L112.67 217.29Q127.91 217.55 132.17 217.55Q146.75 217.55 158.12 217.29L158.35 217.60Q157.23 221.86 156.70 230.97L156.43 231.33L154.26 231.33L153.86 230.97Q153.90 230.57 153.90 230.26Q153.90 226.49 153.32 223.06Q150.53 221.82 145.57 221.44Q140.62 221.06 138.13 221.06Q134.62 221.06 129.15 221.55L128.97 228.66L128.84 236.79L128.71 245.81Q133.51 246.08 137.55 246.08Q141.64 246.08 144.39 245.81Q147.15 245.55 147.61 245.26Q148.08 244.97 148.33 244.15Q148.57 243.33 148.75 241.24L148.93 238.48L149.28 238.13L151.32 238.13L151.68 238.48Q151.59 243.33 151.46 248.21L151.68 258.21L151.32 258.57L149.28 258.57L148.93 258.21L148.61 255.55Q148.21 252.44 148.04 251.84Q147.86 251.24 147.21 250.79Q146.57 250.35 143.90 250.08Q141.24 249.81 136.57 249.81Q134 249.81 128.71 250.04Q128.49 253.77 128.49 262.48Q128.49 271.81 128.71 276.21L136.88 276.21Q147.68 276.21 150.39 275.94Q153.10 275.67 155.55 274.65Q155.95 273.63 156.86 269.92Q157.77 266.21 157.90 265.28L158.35 264.97L160.48 264.97L160.83 265.28Q160.43 267.19 160.06 271.94Q159.68 276.70 159.68 280.07L159.37 280.43Q150.88 280.16 137.15 280.16L125.06 280.07Q120.84 280.07 116.27 280.43L115.91 280.07L115.91 278.61L116.27 278.16Q118.89 276.83 119.27 276.50Q119.64 276.16 119.89 268.72Q120.13 261.28 120.13 257.37L120.13 241.06L120.09 230.97Q120.09 227.69 120 225.62Q119.91 223.55 119.69 222.66Q119.47 221.78 119.18 221.42Q118.89 221.06 118.24 220.82Q117.60 220.58 116.04 220.40L112.67 220.13L112.31 219.82M137.68 214M137.51 282.74M168.62 219.82L168.62 217.60L168.98 217.29Q177.11 217.64 181.64 217.64Q186.66 217.64 195.19 217.33Q198.35 217.24 199.77 217.24Q211.01 217.24 215.01 221.33Q219.01 225.42 219.01 231.02Q219.01 234.75 217.05 238.35Q215.10 241.95 211.28 244.50Q207.46 247.06 200.75 248.35Q201.99 250.08 205.23 254.35L211.54 262.70Q214.61 266.83 218.12 271.43Q221.63 276.03 222.65 276.63Q223.67 277.23 224.41 277.36Q225.14 277.50 226.74 277.50L227.10 277.85L227.10 279.94L226.70 280.34Q224.56 280.07 221.63 280.07Q218.48 280.07 214.74 280.34Q211.68 276.61 205.10 267.41Q197.46 256.75 189.46 247.64L189.90 246.26Q192.22 246.39 193.50 246.39Q201.19 246.39 205.55 242.70Q209.90 239.02 209.90 232.48Q209.90 226.62 205.99 223.62Q202.08 220.62 195.41 220.62Q190.75 220.62 186.62 221.91Q185.95 222.89 185.95 238.57L185.95 259.14L185.99 267.81Q186.04 272.83 186.26 274.30Q186.48 275.76 186.91 276.25Q187.33 276.74 188.53 277.07Q189.73 277.41 194.44 277.58L194.79 277.85L194.79 280.07L194.44 280.43Q194.22 280.43 186.62 280.16Q183.46 280.07 181.68 280.07Q180.31 280.07 168.98 280.43L168.62 280.07L168.62 277.85L168.98 277.58Q173.11 277.41 174.49 277.14Q175.86 276.87 176.33 276.45Q176.80 276.03 177.09 274.65Q177.37 273.27 177.42 268.52L177.46 259.14L177.46 238.57L177.37 229.91Q177.33 224.84 177.13 223.38Q176.93 221.91 176.51 221.42Q176.09 220.93 174.89 220.62Q173.69 220.31 168.98 220.13L168.62 219.82M232.88 219.82L232.88 217.60L233.24 217.29Q248.48 217.55 252.75 217.55Q267.32 217.55 278.69 217.29L278.92 217.60Q277.81 221.86 277.27 230.97L277.01 231.33L274.83 231.33L274.43 230.97Q274.47 230.57 274.47 230.26Q274.47 226.49 273.90 223.06Q271.10 221.82 266.14 221.44Q261.19 221.06 258.70 221.06Q255.19 221.06 249.72 221.55L249.55 228.66L249.41 236.79L249.28 245.81Q254.08 246.08 258.12 246.08Q262.21 246.08 264.96 245.81Q267.72 245.55 268.19 245.26Q268.65 244.97 268.90 244.15Q269.14 243.33 269.32 241.24L269.50 238.48L269.85 238.13L271.90 238.13L272.25 238.48Q272.16 243.33 272.03 248.21L272.25 258.21L271.90 258.57L269.85 258.57L269.50 258.21L269.19 255.55Q268.79 252.44 268.61 251.84Q268.43 251.24 267.79 250.79Q267.14 250.35 264.48 250.08Q261.81 249.81 257.14 249.81Q254.57 249.81 249.28 250.04Q249.06 253.77 249.06 262.48Q249.06 271.81 249.28 276.21L257.46 276.21Q268.25 276.21 270.96 275.94Q273.67 275.67 276.12 274.65Q276.52 273.63 277.43 269.92Q278.34 266.21 278.47 265.28L278.92 264.97L281.05 264.97L281.41 265.28Q281.01 267.19 280.63 271.94Q280.25 276.70 280.25 280.07L279.94 280.43Q271.45 280.16 257.72 280.16L245.64 280.07Q241.42 280.07 236.84 280.43L236.48 280.07L236.48 278.61L236.84 278.16Q239.46 276.83 239.84 276.50Q240.22 276.16 240.46 268.72Q240.70 261.28 240.70 257.37L240.70 241.06L240.66 230.97Q240.66 227.69 240.57 225.62Q240.48 223.55 240.26 222.66Q240.04 221.78 239.75 221.42Q239.46 221.06 238.82 220.82Q238.17 220.58 236.62 220.40L233.24 220.13L232.88 219.82M258.26 214M258.08 282.74M290.26 280.38L289.86 279.98L289.86 277.94L290.26 277.58Q292.97 277.54 294.59 277.27Q296.21 277.01 296.68 276.38Q297.15 275.76 297.30 274.39Q297.46 273.01 297.61 268.16Q297.77 263.32 297.77 261.23L297.77 225.33Q297.77 223.06 296.95 221.98Q296.12 220.89 294.70 220.60Q293.28 220.31 289.86 220.27L289.50 219.91L289.50 217.82L289.86 217.42Q295.99 217.64 297.90 217.64Q302.39 217.64 305.28 217.42L319.45 235.82L340.29 261.94Q344.07 266.70 347.98 270.96L347.98 236.57Q347.98 234.97 347.82 229.75Q347.67 224.53 347.45 223.13Q347.22 221.73 346.67 221.24Q346.11 220.75 344.58 220.51Q343.05 220.27 340.42 220.22L340.07 219.87L340.07 217.82L340.42 217.42Q344.02 217.64 350.69 217.64Q356.78 217.64 359.53 217.42L359.93 217.82L359.93 219.87L359.58 220.22Q356.64 220.27 355.04 220.55Q353.44 220.84 353.04 221.51Q352.64 222.18 352.49 223.46Q352.33 224.75 352.18 229.60Q352.02 234.44 352.02 236.57L352.02 257.68L352.07 269.90Q352.16 275.90 352.24 281.94Q350.02 281.18 344.56 280.07L341.40 276.34L331.94 264.79L301.81 227.15L301.81 261.23Q301.81 263.28 301.97 268.52Q302.12 273.76 302.35 274.87Q302.57 275.98 302.92 276.41Q303.28 276.83 304.46 277.18Q305.63 277.54 309.32 277.58L309.68 277.94L309.68 280.03L309.32 280.38Q307.01 280.07 301.86 280.07Q295.24 280.07 290.26 280.38M367.32 217.60L367.67 217.29L373.23 217.47Q378.69 217.64 380.38 217.64Q381.89 217.64 393.13 217.29L393.49 217.60L393.49 219.82L393.13 220.13Q390.07 220.22 388.40 220.40Q386.74 220.58 385.98 221.06Q385.23 221.55 384.98 223.35Q384.74 225.15 384.74 228.35L384.65 238.57L384.65 259.14L384.69 267.81Q384.74 272.83 384.96 274.30Q385.18 275.76 385.60 276.25Q386.03 276.74 387.23 277.07Q388.42 277.41 393.13 277.58L393.49 277.85L393.49 280.07L393.13 280.43Q392.91 280.43 385.31 280.16Q382.16 280.07 380.38 280.07Q379 280.07 367.67 280.43L367.32 280.07L367.32 277.85L367.67 277.58Q371.81 277.41 373.18 277.14Q374.56 276.87 375.03 276.45Q375.49 276.03 375.78 274.65Q376.07 273.27 376.12 268.52L376.16 259.14L376.16 238.57L376.07 229.91Q376.03 224.84 375.83 223.38Q375.63 221.91 375.21 221.42Q374.78 220.93 373.58 220.62Q372.38 220.31 367.67 220.13L367.32 219.82L367.32 217.60M381 214M380.38 282.74M451.44 217.29L451.84 217.69Q451.44 221.69 451.44 231.64L451.09 232L449 232L448.64 231.60L448.16 227.51Q447.80 224.22 447.60 223.49Q447.40 222.75 446.96 222.42Q446.51 222.09 444.07 221.86Q441.62 221.64 438.60 221.64L430.20 221.64Q429.85 231.68 429.85 233.24L429.85 259.14L429.94 267.81Q429.98 272.83 430.18 274.32Q430.38 275.81 430.80 276.27Q431.23 276.74 432.43 277.07Q433.63 277.41 438.38 277.58L438.69 277.85L438.69 280.07L438.38 280.43Q427 280.07 425.67 280.07Q424.25 280.07 413.01 280.43L412.65 280.07L412.65 277.85L413.01 277.58Q417.18 277.41 418.54 277.14Q419.90 276.87 420.36 276.45Q420.83 276.03 421.14 274.65Q421.45 273.27 421.45 268.52L421.54 259.14L421.54 233.24Q421.54 232.53 421.18 221.64L414.56 221.64Q410.48 221.64 407.50 221.82Q404.52 222 404.05 222.73Q403.59 223.46 403.19 227.51L402.74 231.60L402.34 232L400.30 232L399.94 231.64Q399.86 220.93 399.54 217.69L399.94 217.29Q407.68 217.64 425.67 217.64Q444.02 217.64 451.44 217.29M456.34 221.46L455.94 221.06L455.94 219.20L456.34 218.80L468.92 216.71Q470.25 217.64 471.52 219.07Q472.78 220.49 475.20 224.38Q477.63 228.26 481.45 235.22Q485.27 242.17 488.78 249.15L493.31 241.95L498.42 233.42L507.84 217.29Q509.57 217.47 511.22 217.47Q512.24 217.47 514.33 217.29L514.68 217.64L514.68 218.49Q512.46 220.93 507.80 227.35Q503.13 233.77 500.84 237.39Q498.55 241.02 495.22 246.50Q491.89 251.99 491.58 253.10Q491.27 254.21 491.27 255.72L491.27 262.25L491.31 268.92Q491.36 272.79 491.60 274.32Q491.84 275.85 492.27 276.32Q492.69 276.78 493.87 277.10Q495.04 277.41 499.75 277.58L500.11 277.85L500.11 280.07L499.75 280.43Q499.53 280.43 491.93 280.16Q488.78 280.07 487 280.07Q485.58 280.07 474.29 280.43L473.94 280.07L473.94 277.85L474.29 277.58Q478.51 277.41 479.85 277.14Q481.18 276.87 481.65 276.45Q482.11 276.03 482.38 274.81Q482.65 273.59 482.69 269.81L482.78 262.21L482.78 253.77Q481.80 251.37 476.25 242.26L472.34 235.91Q470.47 232.88 467.65 228.86Q464.83 224.84 463.27 223.40Q461.72 221.95 460.87 221.71Q460.03 221.46 456.34 221.46M488.20 214M486.78 282.74" fill="#412326"/>
    
    <defs>
      <mask id="serenity-sign-svg-club-rule-mask" maskUnits="userSpaceOnUse" x="0" y="0" width="550" height="492">
        <rect x="0" y="0" width="550" height="492" fill="white"/>
        <path d="M243.41 389.93L244.82 391.67L241.66 399.39Q223.24 408.77 202.32 408.77Q172.35 408.77 153.63 391.75Q134.92 374.74 134.92 347.26Q134.92 328.33 144.25 314.18Q153.59 300.03 168.91 293.01Q184.22 286 203.31 286Q214.35 286 225.15 288.32Q235.94 290.65 243.16 293.89L243.74 294.72Q241.83 299.36 240.17 317.71L239.59 318.37L235.69 318.37L235.02 317.71L234.19 303.60Q228.13 298.78 219.54 296.09Q210.95 293.39 201.65 293.39Q187.63 293.39 176.50 299.41Q165.38 305.42 159.24 316.84Q153.09 328.25 153.09 344.77Q153.09 361.37 160.32 373.91Q167.54 386.44 180.03 393.16Q192.52 399.89 209.21 399.89Q216.60 399.89 223.40 398.48Q230.21 397.06 234.73 394.99Q239.26 392.91 243.41 389.93" fill="black" stroke="black" stroke-width="11" stroke-linejoin="round" stroke-linecap="round"/>
      </mask>
    </defs>
    <g mask="url(#serenity-sign-svg-club-rule-mask)">
      <rect x="62" y="394.3" width="136" height="3.4" fill="#667174"/>
      <rect x="218" y="394.3" width="271" height="3.4" fill="#667174"/>
    </g>
    <path d="M243.41 389.93L244.82 391.67L241.66 399.39Q223.24 408.77 202.32 408.77Q172.35 408.77 153.63 391.75Q134.92 374.74 134.92 347.26Q134.92 328.33 144.25 314.18Q153.59 300.03 168.91 293.01Q184.22 286 203.31 286Q214.35 286 225.15 288.32Q235.94 290.65 243.16 293.89L243.74 294.72Q241.83 299.36 240.17 317.71L239.59 318.37L235.69 318.37L235.02 317.71L234.19 303.60Q228.13 298.78 219.54 296.09Q210.95 293.39 201.65 293.39Q187.63 293.39 176.50 299.41Q165.38 305.42 159.24 316.84Q153.09 328.25 153.09 344.77Q153.09 361.37 160.32 373.91Q167.54 386.44 180.03 393.16Q192.52 399.89 209.21 399.89Q216.60 399.89 223.40 398.48Q230.21 397.06 234.73 394.99Q239.26 392.91 243.41 389.93" fill="#412326"/>
    <path d="M243.82 314.88L243.82 312.64L244.18 312.32Q255.32 312.68 257.03 312.68Q258.55 312.68 269.92 312.32L270.28 312.64L270.28 314.88L269.92 315.20Q266.82 315.29 265.13 315.47Q263.45 315.65 262.69 316.14Q261.92 316.64 261.67 318.46Q261.43 320.28 261.43 323.51L261.34 333.84L261.34 353.70Q261.34 361.15 261.43 364.12L261.65 371.89L270.82 371.89Q281.78 371.89 284.49 371.62Q287.21 371.35 289.73 370.32Q290.22 369.20 291.14 365.15Q292.06 361.11 292.11 360.48L292.51 360.12L294.71 360.12L295.03 360.48Q294.67 362.28 294.29 367.44Q293.91 372.61 293.91 375.80L293.55 376.16Q285.01 375.89 271.13 375.89L258.01 375.80Q253.52 375.80 248.85 376.16L248.49 375.80L248.49 374.32L248.85 373.87Q251.63 372.43 251.90 372.12Q252.17 371.80 252.47 366.32Q252.76 360.84 252.76 353.11L252.76 333.84L252.67 325.08Q252.62 319.96 252.42 318.48Q252.22 317 251.79 316.50Q251.37 316.01 250.15 315.69Q248.94 315.38 244.18 315.20L243.82 314.88M301.50 314.88L301.50 312.64L301.86 312.32Q313 312.68 314.71 312.68Q316.24 312.68 327.60 312.32L327.96 312.64L327.96 314.88L327.60 315.20Q324.50 315.29 322.82 315.47Q321.13 315.65 320.37 316.14Q319.60 316.64 319.36 318.46Q319.11 320.28 319.11 323.51L319.02 333.84L319.02 348.13Q319.02 355.18 319.31 358.48Q319.60 361.78 320.57 364.05Q321.54 366.32 323.51 367.96Q325.49 369.60 329.17 370.63Q332.86 371.67 337.53 371.67Q342.47 371.67 346.76 370.30Q351.05 368.93 353.30 366.32Q355.54 363.71 356.24 359.47Q356.93 355.22 356.93 347.68L356.93 333.84Q356.93 330.34 356.82 324.21Q356.71 318.07 356.28 317.15Q355.86 316.23 354.71 315.76Q353.57 315.29 348.35 315.20L348 314.84L348 312.73L348.35 312.32Q355 312.68 359 312.68Q362.42 312.68 369.60 312.32L370.01 312.68L370.01 314.84L369.60 315.20Q365.38 315.29 364.10 315.54Q362.82 315.78 362.30 316.28Q361.79 316.77 361.54 317.80Q361.29 318.84 361.20 323.73L361.07 333.84L361.07 347.50Q361.07 355.67 360.44 360.39Q359.81 365.11 357.63 368.14Q355.45 371.17 352.46 373.22Q349.48 375.26 344.81 376.36Q340.13 377.46 335.10 377.46Q328.81 377.46 323.98 376.07Q319.16 374.68 316.37 372.38Q313.58 370.09 312.37 367.56Q311.16 365.02 310.80 361.58Q310.44 358.14 310.44 351.09L310.44 333.84L310.35 325.08Q310.31 319.96 310.10 318.48Q309.90 317 309.47 316.50Q309.05 316.01 307.83 315.69Q306.62 315.38 301.86 315.20L301.50 314.88M336.58 309M336.32 378.49M378.55 315.47L375.13 315.20L374.77 314.88L374.77 312.64L375.13 312.32Q382.81 312.68 386.99 312.68Q388.56 312.68 399.43 312.32Q402.94 312.23 404.51 312.23Q410.57 312.23 414.12 313.45Q417.67 314.66 419.83 317.74Q421.98 320.81 421.98 324.72Q421.98 329.71 418.39 333.98Q414.80 338.24 406.71 340.09Q411.56 340.54 414.71 341.39Q417.85 342.24 420.14 344.02Q422.43 345.79 423.76 348.62Q425.08 351.45 425.08 355.18Q425.08 358.10 424.19 361.11Q423.29 364.12 420.88 367.08Q418.48 370.05 415.07 372.16Q411.65 374.27 408.08 375.21Q404.51 376.16 399.21 376.16Q398.13 376.16 392.74 375.93Q386.77 375.80 386.27 375.80Q383.22 375.80 378.77 376.16L378.41 375.80L378.41 374.32L378.77 373.87Q381.38 372.70 381.78 372.25Q382.18 371.80 382.43 364.30Q382.68 356.80 382.68 352.84L382.68 336.36L382.63 326.16Q382.63 322.84 382.54 320.75Q382.45 318.66 382.30 317.76Q382.14 316.86 381.78 316.50Q381.42 316.14 380.77 315.90Q380.12 315.65 378.55 315.47M391.26 330.70L391.26 338.78Q393.50 338.96 396.33 338.96Q405.63 338.96 409.27 335.64Q412.91 332.31 412.91 326.52Q412.91 323.15 411.52 320.79Q410.13 318.43 407.14 317.18Q404.15 315.92 399.03 315.92Q394.85 315.92 391.66 316.59Q391.26 320.63 391.26 330.70M391.26 357.83L391.35 371.53Q394.81 372.34 398.45 372.34Q404.87 372.34 408.51 370.27Q412.15 368.21 413.88 364.55Q415.61 360.88 415.61 356.57Q415.61 350.10 411.94 346.22Q408.28 342.33 396.11 342.33Q394.09 342.33 391.26 342.51" fill="#412326"/>
    <path d="M30.08 438.52Q30.08 434.42 31.25 430.86Q32.43 427.31 35.26 424.29Q38.09 421.27 42.08 419.61Q46.07 417.96 51.11 417.96Q60.43 417.96 65.95 423.03Q71.48 428.10 71.48 436.88Q71.48 443.06 68.77 447.98Q66.06 452.90 61.02 455.64Q55.97 458.37 49.68 458.37Q45.23 458.37 41.48 456.88Q37.73 455.39 35.10 452.44Q32.46 449.48 31.27 445.60Q30.08 441.72 30.08 438.52M35.77 436.71Q35.77 440.05 36.85 443.89Q37.93 447.73 40.07 450.48Q42.22 453.23 45.02 454.57Q47.82 455.91 51.41 455.91Q55.64 455.91 58.95 453.97Q62.26 452.03 63.98 447.94Q65.71 443.85 65.71 438.77Q65.71 433.24 63.74 428.79Q61.77 424.33 58.13 422.30Q54.50 420.28 50.07 420.28Q43.42 420.28 39.59 424.44Q35.77 428.59 35.77 436.71M50.37 416.70M50.50 459M86.01 438.93L86.01 444.48L86.04 449.81Q86.07 452.79 86.20 453.76Q86.34 454.73 86.60 455.02Q86.86 455.31 87.60 455.51Q88.33 455.72 91.23 455.83L91.45 455.99L91.45 457.36L91.23 457.58Q84.29 457.36 83.39 457.36Q82.51 457.36 75.57 457.58L75.35 457.36L75.35 455.99L75.57 455.83Q78.14 455.72 78.97 455.55Q79.80 455.39 80.09 455.12Q80.38 454.84 80.56 454.02Q80.73 453.20 80.76 450.30L80.79 444.48L80.79 431.82L80.73 426.49Q80.71 423.37 80.58 422.47Q80.46 421.57 80.20 421.27Q79.94 420.96 79.20 420.77Q78.46 420.58 75.57 420.47L75.35 420.28L75.35 418.91L75.57 418.72Q87.16 418.89 89.10 418.89Q95.61 418.89 102.44 418.72L102.66 418.91Q102.23 420.28 102.09 422.02Q101.95 423.75 101.79 426.93L101.57 427.14L100.28 427.14L100.09 426.93Q100.04 426.73 99.85 424.82Q99.71 423.32 99.41 422.06Q96.57 421.10 91.56 421.10Q89.32 421.10 86.31 421.43Q86.01 423.56 86.01 431.82L86.01 436.55Q89.48 436.61 90.74 436.61Q93.07 436.61 94.73 436.43Q96.40 436.25 96.73 436.09Q97.06 435.92 97.24 435.47Q97.41 435.02 97.58 433.49L97.74 432.01L97.93 431.79L99.33 431.79L99.55 432.04L99.35 438.03Q99.35 439.07 99.44 441.04Q99.55 443.28 99.55 444.51L99.30 444.73L97.93 444.73L97.74 444.51L97.63 442.18Q97.55 440.82 97.36 440.19Q97.17 439.56 96.73 439.37Q96.29 439.18 94.79 439.01Q93.28 438.85 90.17 438.85Q87.41 438.85 86.01 438.93" fill="#412326"/>
    <path d="M167.16 454.58L167.80 455.36L166.39 458.81Q158.15 463 148.80 463Q135.40 463 127.03 455.39Q118.66 447.79 118.66 435.50Q118.66 427.04 122.84 420.71Q127.01 414.39 133.86 411.25Q140.71 408.12 149.24 408.12Q154.18 408.12 159 409.15Q163.82 410.19 167.05 411.64L167.31 412.01Q166.46 414.09 165.72 422.29L165.46 422.59L163.71 422.59L163.42 422.29L163.05 415.98Q160.34 413.83 156.50 412.62Q152.66 411.42 148.50 411.42Q142.23 411.42 137.25 414.11Q132.28 416.80 129.54 421.90Q126.79 427 126.79 434.39Q126.79 441.81 130.02 447.41Q133.25 453.02 138.83 456.02Q144.42 459.03 151.88 459.03Q155.18 459.03 158.22 458.40Q161.26 457.77 163.29 456.84Q165.31 455.91 167.16 454.58" fill="#412326"/>
    <path d="M166.80 420.28L166.80 418.91L167.01 418.72Q173.80 418.94 174.83 418.94Q175.76 418.94 182.68 418.72L182.90 418.91L182.90 420.28L182.68 420.47Q180.80 420.53 179.77 420.64Q178.74 420.75 178.28 421.05Q177.82 421.35 177.66 422.46Q177.51 423.56 177.51 425.53L177.46 431.82L177.46 443.91Q177.46 448.45 177.51 450.25L177.65 454.98L183.23 454.98Q189.90 454.98 191.56 454.82Q193.21 454.65 194.74 454.02Q195.04 453.34 195.60 450.88Q196.16 448.42 196.19 448.04L196.44 447.82L197.78 447.82L197.97 448.04Q197.75 449.13 197.52 452.27Q197.28 455.42 197.28 457.36L197.07 457.58Q191.87 457.41 183.42 457.41L175.44 457.36Q172.70 457.36 169.86 457.58L169.64 457.36L169.64 456.46L169.86 456.18Q171.55 455.31 171.72 455.12Q171.88 454.93 172.06 451.59Q172.24 448.25 172.24 443.55L172.24 431.82L172.18 426.49Q172.16 423.37 172.03 422.47Q171.91 421.57 171.65 421.27Q171.39 420.96 170.65 420.77Q169.91 420.58 167.01 420.47L166.80 420.28M203.29 420.28L203.29 418.91L203.51 418.72Q212.88 418.89 215.51 418.89Q224.48 418.89 231.48 418.72L231.62 418.91Q230.93 421.54 230.60 427.14L230.44 427.36L229.10 427.36L228.85 427.14Q228.88 426.90 228.88 426.71Q228.88 424.38 228.53 422.28Q226.80 421.51 223.75 421.28Q220.71 421.05 219.17 421.05Q217.01 421.05 213.65 421.35L213.54 425.72L213.46 430.73L213.38 436.28Q216.33 436.44 218.82 436.44Q221.33 436.44 223.03 436.28Q224.72 436.11 225.01 435.94Q225.30 435.76 225.45 435.25Q225.60 434.75 225.71 433.46L225.82 431.77L226.04 431.55L227.29 431.55L227.51 431.77Q227.46 434.75 227.38 437.75L227.51 443.91L227.29 444.13L226.04 444.13L225.82 443.91L225.63 442.27Q225.38 440.35 225.27 439.98Q225.16 439.61 224.77 439.34Q224.37 439.07 222.73 438.90Q221.09 438.74 218.22 438.74Q216.63 438.74 213.38 438.88Q213.24 441.17 213.24 446.53Q213.24 452.27 213.38 454.98L218.41 454.98Q225.05 454.98 226.72 454.82Q228.39 454.65 229.89 454.02Q230.14 453.39 230.70 451.11Q231.26 448.83 231.34 448.25L231.62 448.06L232.93 448.06L233.15 448.25Q232.90 449.43 232.67 452.36Q232.44 455.28 232.44 457.36L232.24 457.58Q227.02 457.41 218.57 457.41L211.13 457.36Q208.54 457.36 205.72 457.58L205.50 457.36L205.50 456.46L205.72 456.18Q207.33 455.36 207.57 455.16Q207.80 454.95 207.95 450.37Q208.10 445.79 208.10 443.39L208.10 433.35L208.07 427.14Q208.07 425.12 208.02 423.85Q207.96 422.58 207.83 422.03Q207.69 421.48 207.51 421.27Q207.33 421.05 206.94 420.90Q206.54 420.75 205.58 420.64L203.51 420.47L203.29 420.28M218.90 416.70M218.79 459M238 457.58L237.76 457.36L237.76 455.94L238 455.72Q240 455.69 240.57 455.51Q241.15 455.34 241.60 454.80Q242.05 454.27 243.42 451.32L246.29 445.08L253.72 428.24Q255.83 423.29 257.91 418.34L259.68 418.34L271.36 445.79L272.92 449.46Q273.60 451.02 274.49 452.85Q275.38 454.68 275.72 455.01Q276.06 455.34 276.57 455.51Q277.08 455.69 278.83 455.72L279.04 455.94L279.04 457.36L278.83 457.58Q275.93 457.33 273.60 457.33Q269.06 457.47 264.52 457.58L264.31 457.36L264.31 455.94L264.52 455.72Q267.59 455.66 268.35 455.46Q269.12 455.25 269.12 454.52Q269.12 453.91 268.74 452.93L265.37 444.59L249.54 444.59L246.56 451.59Q245.77 453.48 245.77 454.35Q245.77 455.04 246.51 455.36Q247.24 455.69 250.22 455.72L250.47 455.94L250.47 457.36L250.25 457.58Q246.72 457.36 244.07 457.36Q241.06 457.36 238 457.58M257.44 425.75L250.47 442.24L264.31 442.24L257.44 425.75M258.76 416.70M258.13 459M282.81 420.28L282.81 418.91L283.02 418.72Q288.03 418.94 290.82 418.94Q293.91 418.94 299.16 418.75Q301.10 418.70 301.97 418.70Q308.89 418.70 311.35 421.21Q313.81 423.73 313.81 427.17Q313.81 429.47 312.61 431.68Q311.41 433.90 309.06 435.47Q306.70 437.04 302.57 437.84Q303.34 438.90 305.34 441.53L309.22 446.67Q311.11 449.21 313.27 452.04Q315.43 454.87 316.06 455.24Q316.68 455.61 317.14 455.69Q317.59 455.77 318.57 455.77L318.79 455.99L318.79 457.28L318.54 457.52Q317.23 457.36 315.43 457.36Q313.48 457.36 311.19 457.52Q309.30 455.23 305.25 449.57Q300.55 443 295.63 437.40L295.90 436.55Q297.32 436.63 298.12 436.63Q302.85 436.63 305.53 434.36Q308.21 432.09 308.21 428.07Q308.21 424.46 305.80 422.62Q303.39 420.77 299.29 420.77Q296.42 420.77 293.88 421.57Q293.47 422.17 293.47 431.82L293.47 444.48L293.50 449.81Q293.52 452.90 293.66 453.80Q293.80 454.71 294.06 455.01Q294.32 455.31 295.06 455.51Q295.79 455.72 298.69 455.83L298.91 455.99L298.91 457.36L298.69 457.58Q298.56 457.58 293.88 457.41Q291.94 457.36 290.84 457.36Q290 457.36 283.02 457.58L282.81 457.36L282.81 455.99L283.02 455.83Q285.57 455.72 286.41 455.55Q287.26 455.39 287.55 455.13Q287.84 454.87 288.01 454.02Q288.19 453.18 288.22 450.25L288.25 444.48L288.25 431.82L288.19 426.49Q288.16 423.37 288.04 422.47Q287.92 421.57 287.66 421.27Q287.40 420.96 286.66 420.77Q285.92 420.58 283.02 420.47L282.81 420.28M334.91 457.88L332.15 457.88L329.66 446.48L324.38 423.97Q323.75 421.29 323.07 420.98Q322.39 420.66 320.12 420.39L319.90 420.17L319.90 418.97L320.12 418.72Q324.05 418.94 327.09 418.94Q329.36 418.94 333.71 418.72L333.95 418.97L333.95 420.17L333.73 420.39Q330.70 420.50 330.08 420.69Q329.47 420.88 329.47 421.59Q329.47 422.17 330.02 425.22Q330.56 428.27 331 430.18L335.29 449.13L342.05 432.31Q344.70 425.64 347.27 418.34L349.02 418.34Q351.21 425.20 353.53 431.66L359.96 449.48L364.61 433.16Q365.32 430.59 366.36 426.41Q367.39 422.22 367.39 421.57Q367.39 420.83 366.71 420.65Q366.03 420.47 362.77 420.39L362.55 420.14L362.55 418.94L362.77 418.72Q367.42 418.94 368.38 418.94Q369.25 418.94 374.07 418.72L374.28 418.94L374.28 420.17L374.07 420.36Q372.51 420.42 371.99 420.65Q371.47 420.88 371.09 421.36Q370.70 421.84 369.99 424.16L368.41 429.25L365.59 438.46Q364.99 440.46 363.37 446.56L360.34 457.88L357.55 457.88Q354.71 449.40 352.85 444.32L346.61 427.45L341.17 440.95L338.25 448.61Q337.10 451.64 336.41 453.56L334.91 457.88M372.17 457.58L371.92 457.36L371.92 455.94L372.17 455.72Q374.16 455.69 374.74 455.51Q375.31 455.34 375.76 454.80Q376.21 454.27 377.58 451.32L380.45 445.08L387.89 428.24Q389.99 423.29 392.07 418.34L393.85 418.34L405.53 445.79L407.08 449.46Q407.77 451.02 408.66 452.85Q409.55 454.68 409.89 455.01Q410.23 455.34 410.74 455.51Q411.24 455.69 412.99 455.72L413.21 455.94L413.21 457.36L412.99 457.58Q410.09 457.33 407.77 457.33Q403.23 457.47 398.69 457.58L398.47 457.36L398.47 455.94L398.69 455.72Q401.75 455.66 402.52 455.46Q403.28 455.25 403.28 454.52Q403.28 453.91 402.90 452.93L399.54 444.59L383.71 444.59L380.73 451.59Q379.93 453.48 379.93 454.35Q379.93 455.04 380.67 455.36Q381.41 455.69 384.39 455.72L384.64 455.94L384.64 457.36L384.42 457.58Q380.89 457.36 378.24 457.36Q375.23 457.36 372.17 457.58M391.61 425.75L384.64 442.24L398.47 442.24L391.61 425.75M392.92 416.70M392.29 459M444.67 418.72L444.92 418.97Q444.67 421.43 444.67 427.55L444.45 427.77L443.17 427.77L442.95 427.53L442.65 425.01Q442.43 422.99 442.30 422.54Q442.18 422.09 441.91 421.88Q441.63 421.68 440.13 421.54Q438.63 421.40 436.77 421.40L431.60 421.40Q431.38 427.58 431.38 428.54L431.38 444.48L431.44 449.81Q431.46 452.90 431.59 453.82Q431.71 454.73 431.97 455.02Q432.23 455.31 432.97 455.51Q433.71 455.72 436.63 455.83L436.82 455.99L436.82 457.36L436.63 457.58Q429.63 457.36 428.81 457.36Q427.94 457.36 421.02 457.58L420.80 457.36L420.80 455.99L421.02 455.83Q423.59 455.72 424.42 455.55Q425.26 455.39 425.54 455.13Q425.83 454.87 426.02 454.02Q426.21 453.18 426.21 450.25L426.27 444.48L426.27 428.54Q426.27 428.10 426.05 421.40L421.97 421.40Q419.46 421.40 417.63 421.51Q415.79 421.62 415.51 422.07Q415.22 422.52 414.97 425.01L414.70 427.53L414.46 427.77L413.20 427.77L412.98 427.55Q412.92 420.96 412.73 418.97L412.98 418.72Q417.74 418.94 428.81 418.94Q440.10 418.94 444.67 418.72M449.28 420.28L449.28 418.91L449.50 418.72Q458.88 418.89 461.50 418.89Q470.47 418.89 477.47 418.72L477.61 418.91Q476.92 421.54 476.59 427.14L476.43 427.36L475.09 427.36L474.84 427.14Q474.87 426.90 474.87 426.71Q474.87 424.38 474.52 422.28Q472.79 421.51 469.75 421.28Q466.70 421.05 465.17 421.05Q463.01 421.05 459.64 421.35L459.53 425.72L459.45 430.73L459.37 436.28Q462.32 436.44 464.81 436.44Q467.33 436.44 469.02 436.28Q470.72 436.11 471 435.94Q471.29 435.76 471.44 435.25Q471.59 434.75 471.70 433.46L471.81 431.77L472.03 431.55L473.29 431.55L473.51 431.77Q473.45 434.75 473.37 437.75L473.51 443.91L473.29 444.13L472.03 444.13L471.81 443.91L471.62 442.27Q471.37 440.35 471.26 439.98Q471.15 439.61 470.76 439.34Q470.36 439.07 468.72 438.90Q467.08 438.74 464.21 438.74Q462.62 438.74 459.37 438.88Q459.23 441.17 459.23 446.53Q459.23 452.27 459.37 454.98L464.40 454.98Q471.04 454.98 472.71 454.82Q474.38 454.65 475.88 454.02Q476.13 453.39 476.69 451.11Q477.25 448.83 477.33 448.25L477.61 448.06L478.92 448.06L479.14 448.25Q478.89 449.43 478.66 452.36Q478.43 455.28 478.43 457.36L478.24 457.58Q473.01 457.41 464.56 457.41L457.13 457.36Q454.53 457.36 451.71 457.58L451.49 457.36L451.49 456.46L451.71 456.18Q453.33 455.36 453.56 455.16Q453.79 454.95 453.94 450.37Q454.09 445.79 454.09 443.39L454.09 433.35L454.06 427.14Q454.06 425.12 454.01 423.85Q453.95 422.58 453.82 422.03Q453.68 421.48 453.50 421.27Q453.33 421.05 452.93 420.90Q452.53 420.75 451.58 420.64L449.50 420.47L449.28 420.28M464.89 416.70M464.78 459M483.94 420.28L483.94 418.91L484.16 418.72Q489.16 418.94 491.95 418.94Q495.04 418.94 500.29 418.75Q502.23 418.70 503.11 418.70Q510.02 418.70 512.48 421.21Q514.95 423.73 514.95 427.17Q514.95 429.47 513.74 431.68Q512.54 433.90 510.19 435.47Q507.84 437.04 503.71 437.84Q504.47 438.90 506.47 441.53L510.35 446.67Q512.24 449.21 514.40 452.04Q516.56 454.87 517.19 455.24Q517.82 455.61 518.27 455.69Q518.72 455.77 519.70 455.77L519.92 455.99L519.92 457.28L519.68 457.52Q518.36 457.36 516.56 457.36Q514.62 457.36 512.32 457.52Q510.43 455.23 506.39 449.57Q501.68 443 496.76 437.40L497.04 436.55Q498.46 436.63 499.25 436.63Q503.98 436.63 506.66 434.36Q509.34 432.09 509.34 428.07Q509.34 424.46 506.93 422.62Q504.53 420.77 500.43 420.77Q497.56 420.77 495.01 421.57Q494.60 422.17 494.60 431.82L494.60 444.48L494.63 449.81Q494.66 452.90 494.79 453.80Q494.93 454.71 495.19 455.01Q495.45 455.31 496.19 455.51Q496.93 455.72 499.82 455.83L500.04 455.99L500.04 457.36L499.82 457.58Q499.69 457.58 495.01 457.41Q493.07 457.36 491.98 457.36Q491.13 457.36 484.16 457.58L483.94 457.36L483.94 455.99L484.16 455.83Q486.70 455.72 487.55 455.55Q488.39 455.39 488.68 455.13Q488.97 454.87 489.15 454.02Q489.32 453.18 489.35 450.25L489.38 444.48L489.38 431.82L489.32 426.49Q489.30 423.37 489.17 422.47Q489.05 421.57 488.79 421.27Q488.53 420.96 487.79 420.77Q487.06 420.58 484.16 420.47" fill="#412326"/>
    <line x1="64" y1="474" x2="488" y2="474" stroke="#667174" stroke-width="3.4" stroke-linecap="square"/>
    </g>
  </g>
</svg>
